<?xml version="1.0" standalone="no"?>
<!DOCTYPE svg PUBLIC "-//W3C//DTD SVG 20010904//EN"
 "http://www.w3.org/TR/2001/REC-SVG-20010904/DTD/svg10.dtd">
<svg version="1.0" xmlns="http://www.w3.org/2000/svg"
 width="288.000000pt" height="163.000000pt" viewBox="0 0 288.000000 163.000000"
 preserveAspectRatio="xMidYMid meet">

<g transform="translate(0.000000,163.000000) scale(0.100000,-0.100000)"
fill="#000000" stroke="none">
<path d="M1050 1220 c0 -73 4 -120 10 -120 6 0 10 43 10 110 l0 110 325 0 325
0 0 -110 c0 -67 4 -110 10 -110 6 0 10 47 10 120 l0 120 -345 0 -345 0 0 -120z"/>
<path d="M1162 992 c-97 -35 -146 -108 -145 -217 1 -136 86 -215 230 -215 121
1 201 60 223 166 39 187 -127 330 -308 266z m115 -27 c36 -25 58 -100 57 -195
-1 -97 -22 -155 -66 -179 -24 -14 -28 -14 -49 4 -41 37 -62 102 -61 190 0 89
21 156 55 180 27 19 37 19 64 0z m-117 -12 c0 -5 -7 -30 -15 -57 -24 -80 -16
-194 20 -278 13 -32 -25 -20 -65 20 -79 79 -79 205 0 284 35 35 60 48 60 31z
m209 -9 c15 -9 38 -32 51 -52 34 -48 35 -157 4 -217 -19 -35 -78 -84 -89 -73
-2 2 2 26 10 53 21 67 19 188 -4 253 -19 56 -15 61 28 36z"/>
<path d="M1532 988 c3 -7 17 -14 31 -16 l27 -3 0 -189 0 -189 -27 -3 c-14 -2
-28 -9 -31 -16 -3 -10 22 -12 117 -10 70 2 122 7 124 13 1 6 -10 11 -25 13
l-28 3 0 189 0 189 25 3 c14 2 25 8 25 13 0 6 -49 11 -121 13 -95 2 -120 0
-117 -10z m158 -209 l0 -190 -37 3 -38 3 -3 188 -2 187 40 0 40 0 0 -191z"/>
<path d="M1050 335 l0 -125 345 0 345 0 0 119 c0 69 -4 122 -10 126 -6 4 -10
-37 -10 -115 l0 -120 -322 2 -323 3 -3 118 c-4 159 -22 153 -22 -8z"/>
</g>
</svg>
