<?xml version="1.0" standalone="no"?>
<!DOCTYPE svg PUBLIC "-//W3C//DTD SVG 20010904//EN"
 "http://www.w3.org/TR/2001/REC-SVG-20010904/DTD/svg10.dtd">
<svg version="1.0" xmlns="http://www.w3.org/2000/svg"
 width="672.000000pt" height="358.000000pt" viewBox="0 0 672.000000 358.000000"
 preserveAspectRatio="xMidYMid meet">

<g transform="translate(0.000000,358.000000) scale(0.100000,-0.100000)"
fill="#000000" stroke="none">
<path d="M1660 2179 c-30 -5 -88 -25 -128 -45 -319 -156 -344 -615 -43 -806
148 -93 384 -93 531 0 140 89 211 220 211 392 0 194 -91 340 -264 420 -95 45
-194 57 -307 39z m246 -143 c140 -64 221 -221 193 -374 -29 -157 -135 -261
-286 -282 -164 -22 -307 49 -374 186 -29 58 -32 74 -32 153 0 99 24 167 83
234 95 109 279 145 416 83z"/>
<path d="M2410 1720 l0 -460 65 0 65 0 2 336 3 335 189 -238 c104 -131 223
-282 265 -335 l76 -97 53 -1 52 0 0 460 0 460 -65 0 -65 0 -2 -336 -3 -336
-265 335 -265 336 -52 0 -53 1 0 -460z"/>
<path d="M3910 1720 l0 -460 65 0 65 0 0 460 0 460 -65 0 -65 0 0 -460z"/>
<path d="M4290 1720 l0 -460 65 0 65 0 2 337 3 336 266 -334 265 -334 52 -3
52 -3 0 460 0 461 -65 0 -65 0 -2 -335 -3 -335 -265 335 -265 335 -52 0 -53 0
0 -460z"/>
<path d="M3360 1620 l0 -60 185 0 185 0 0 60 0 60 -185 0 -185 0 0 -60z"/>
</g>
</svg>
